<svg width="52" height="68" viewBox="0 0 52 68" fill="none" xmlns="http://www.w3.org/2000/svg">
<path d="M0 12C0 9.79086 1.79086 8 4 8H48C50.2091 8 52 9.79086 52 12V56C52 58.2091 50.2091 60 48 60H4C1.79086 60 0 58.2091 0 56V12Z" fill="url(#paint0_linear_1828_2192)" fill-opacity="0.7"/>
<g clip-path="url(#clip0_1828_2192)">
<g filter="url(#filter0_d_1828_2192)">
<path d="M19.6611 20.5155C25.8769 22.761 32.099 25.0509 38.3622 27.3871C38.8984 27.5876 39.9391 27.8374 40.3155 28.2241C40.9181 28.8448 40.7109 29.8505 39.9549 30.2372C38.0902 31.1666 36.2935 32.4715 34.4398 33.3913C34.3797 33.4216 34.2516 33.4868 34.1946 33.4852C28.1987 31.2923 22.2012 29.0803 16.2163 26.8619C15.3828 26.5532 14.5034 26.2986 13.7047 25.9724C13.3425 25.8244 12.8617 25.4631 12.8111 25.0414C12.7937 24.8998 12.8364 24.451 12.8854 24.3062C13.1337 23.5726 13.4912 22.7451 13.779 21.978C14.0305 21.308 14.3041 20.1288 14.8988 19.688C15.9221 18.9289 16.9201 19.5703 17.9308 19.9315C18.5049 20.1368 19.0933 20.3087 19.6627 20.5155H19.6611Z" fill="white"/>
<path d="M14.6312 41.0768L18.6374 39.4838L20.6967 35.8857C20.0878 35.7027 19.5817 35.4115 19.2796 34.829C19.1784 34.6349 19.0471 34.1686 19.0408 33.9538C19.0376 33.8376 19.1989 33.3459 19.161 33.3093C19.0645 33.2759 18.9886 33.2456 18.9063 33.2186C17.3326 32.687 15.6925 31.998 14.1915 31.4378C12.4153 30.7758 10.6629 30.5164 11.5897 28.0482C11.6878 27.7872 11.8823 27.2987 12.0927 27.1236C12.7016 26.6192 13.2409 26.8817 13.8942 27.1157C16.3109 27.9798 18.7829 28.9505 21.206 29.8385C25.4226 31.3837 29.6487 32.9067 33.8637 34.4598L33.927 34.5187L33.9302 34.5903C33.6439 35.2046 33.4921 35.8841 33.22 36.5016C32.8278 37.3927 32.0559 37.8876 31.0769 37.7015L25.0225 35.4863C24.9465 35.4863 24.7615 35.8905 24.6887 35.9844C24.2696 36.5238 23.648 36.7785 22.9711 36.7196C22.7813 36.7037 22.6216 36.6257 22.4397 36.6034L20.2586 40.5866C20.1052 40.7935 19.9534 40.9574 19.724 41.0815L14.6344 43.1933" fill="white"/>
<path d="M34.4116 36.5126L34.4496 36.2612L35.2578 34.1733C36.2684 33.645 37.2285 33.0148 38.2328 32.4785C38.353 32.4149 38.4147 32.3958 38.3578 32.5644C37.9829 33.6545 37.578 34.8178 37.1589 35.8888C37.0529 36.1594 36.9375 36.5333 36.7382 36.737C36.066 37.4293 35.1455 36.6909 34.41 36.5126H34.4116Z" fill="white"/>
<path d="M19.5159 33.0468L25.4373 35.3637L25.2086 35.9554C24.8921 36.7741 23.9749 37.1802 23.1612 36.8618L20.188 35.6985C19.3743 35.3801 18.9707 34.4572 19.2871 33.6385L19.5159 33.0468Z" fill="white"/>
<path d="M14.4981 34.6624H11.9675C11.6181 34.6624 11.3348 34.9473 11.3348 35.2989V48.0299C11.3348 48.3814 11.6181 48.6664 11.9675 48.6664H14.4981C14.8475 48.6664 15.1307 48.3814 15.1307 48.0299V35.2989C15.1307 34.9473 14.8475 34.6624 14.4981 34.6624Z" fill="white"/>
</g>
</g>
<defs>
<filter id="filter0_d_1828_2192" x="7.33337" y="19.3334" width="37.3333" height="37.333" filterUnits="userSpaceOnUse" color-interpolation-filters="sRGB">
<feFlood flood-opacity="0" result="BackgroundImageFix"/>
<feColorMatrix in="SourceAlpha" type="matrix" values="0 0 0 0 0 0 0 0 0 0 0 0 0 0 0 0 0 0 127 0" result="hardAlpha"/>
<feOffset dy="4"/>
<feGaussianBlur stdDeviation="2"/>
<feComposite in2="hardAlpha" operator="out"/>
<feColorMatrix type="matrix" values="0 0 0 0 0 0 0 0 0 0 0 0 0 0 0 0 0 0 0.6 0"/>
<feBlend mode="normal" in2="BackgroundImageFix" result="effect1_dropShadow_1828_2192"/>
<feBlend mode="normal" in="SourceGraphic" in2="effect1_dropShadow_1828_2192" result="shape"/>
</filter>
<linearGradient id="paint0_linear_1828_2192" x1="26" y1="8" x2="26" y2="60" gradientUnits="userSpaceOnUse">
<stop stop-color="#132A3E"/>
<stop offset="1" stop-color="#091620"/>
</linearGradient>
<clipPath id="clip0_1828_2192">
<rect width="32" height="32" fill="white" transform="translate(10 18)"/>
</clipPath>
</defs>
</svg>
