<svg width="24" height="23" viewBox="0 0 24 23" fill="none" xmlns="http://www.w3.org/2000/svg">
<g filter="url(#filter0_d_1571_10549)">
<path d="M7.24582 0.886626C11.9077 2.57069 16.5742 4.28818 21.2717 6.04028C21.6738 6.19066 22.4543 6.37805 22.7366 6.66807C23.1886 7.13355 23.0332 7.88786 22.4662 8.17789C21.0676 8.87491 19.7201 9.8536 18.3298 10.5435C18.2848 10.5661 18.1887 10.6151 18.146 10.6139C13.649 8.9692 9.15089 7.31019 4.66224 5.64641C4.03711 5.41487 3.37757 5.22391 2.77853 4.97923C2.50688 4.86824 2.14627 4.5973 2.10832 4.28102C2.09527 4.17479 2.1273 3.83822 2.16407 3.72961C2.3503 3.17939 2.61839 2.55876 2.83428 1.98348C3.02289 1.481 3.22811 0.596599 3.67412 0.265992C4.44161 -0.303321 5.19011 0.17767 5.9481 0.448601C6.3787 0.602566 6.81997 0.731467 7.24701 0.886626H7.24582Z" fill="#0A84FF"/>
<path d="M3.47336 16.3075L6.47805 15.1128L8.02251 12.4142C7.56581 12.277 7.18622 12.0585 6.95965 11.6217C6.88374 11.4761 6.78528 11.1264 6.78054 10.9653C6.77816 10.8781 6.89916 10.5093 6.87069 10.4819C6.79833 10.4568 6.74139 10.4342 6.67971 10.4139C5.49942 10.0152 4.26931 9.49843 3.14359 9.07831C1.81147 8.5818 0.497139 8.38725 1.19226 6.53609C1.26581 6.34035 1.41171 5.97394 1.56948 5.84265C2.02617 5.46431 2.43067 5.66124 2.92058 5.83669C4.73312 6.48477 6.58718 7.21282 8.40447 7.87881C11.5669 9.03773 14.7365 10.1799 17.8978 11.3448L17.9452 11.389L17.9476 11.4427C17.7329 11.9034 17.619 12.413 17.415 12.8761C17.1208 13.5445 16.5419 13.9157 15.8077 13.776L11.2668 12.1146C11.2099 12.1146 11.0711 12.4178 11.0165 12.4882C10.7022 12.8928 10.236 13.0838 9.72829 13.0396C9.58594 13.0277 9.46613 12.9692 9.32972 12.9525L7.69392 15.9399C7.57886 16.0951 7.46498 16.218 7.29298 16.3111L3.47573 17.8949" fill="#0A84FF"/>
<path d="M18.3087 12.8844L18.3372 12.6959L18.9433 11.13C19.7013 10.7337 20.4214 10.2611 21.1746 9.85886C21.2648 9.81111 21.311 9.79679 21.2683 9.92331C20.9872 10.7409 20.6835 11.6133 20.3692 12.4166C20.2897 12.6195 20.2031 12.9 20.0536 13.0527C19.5495 13.5719 18.8591 13.0181 18.3075 12.8844H18.3087Z" fill="#0A84FF"/>
<path d="M7.1369 10.285L11.578 12.0227L11.4064 12.4665C11.1691 13.0806 10.4812 13.3851 9.87092 13.1463L7.64099 12.2738C7.03072 12.035 6.72804 11.3429 6.96536 10.7289L7.1369 10.285Z" fill="#0A84FF"/>
<path d="M3.3735 11.4967H1.47556C1.2135 11.4967 1.00107 11.7104 1.00107 11.9741V21.5223C1.00107 21.786 1.2135 21.9997 1.47556 21.9997H3.3735C3.63556 21.9997 3.84799 21.786 3.84799 21.5223V11.9741C3.84799 11.7104 3.63556 11.4967 3.3735 11.4967Z" fill="#0A84FF"/>
</g>
<defs>
<filter id="filter0_d_1571_10549" x="-3" y="0" width="30" height="29.9998" filterUnits="userSpaceOnUse" color-interpolation-filters="sRGB">
<feFlood flood-opacity="0" result="BackgroundImageFix"/>
<feColorMatrix in="SourceAlpha" type="matrix" values="0 0 0 0 0 0 0 0 0 0 0 0 0 0 0 0 0 0 127 0" result="hardAlpha"/>
<feOffset dy="4"/>
<feGaussianBlur stdDeviation="2"/>
<feComposite in2="hardAlpha" operator="out"/>
<feColorMatrix type="matrix" values="0 0 0 0 0 0 0 0 0 0 0 0 0 0 0 0 0 0 0.6 0"/>
<feBlend mode="normal" in2="BackgroundImageFix" result="effect1_dropShadow_1571_10549"/>
<feBlend mode="normal" in="SourceGraphic" in2="effect1_dropShadow_1571_10549" result="shape"/>
</filter>
</defs>
</svg>
