<svg width="141" height="40" viewBox="0 0 141 40" fill="none" xmlns="http://www.w3.org/2000/svg">
<g clip-path="url(#clip0_1733_3905)">
<g filter="url(#filter0_d_1733_3905)">
<path d="M58.3695 29.9516V29.1278C58.6487 29.2993 58.8933 29.4225 59.0811 29.4902C59.2738 29.5627 59.4689 29.5941 59.6518 29.5941C59.8346 29.5941 59.9729 29.5675 60.0717 29.5119C60.1607 29.4539 60.2126 29.3718 60.2126 29.2631C60.2126 29.1737 60.1854 29.1084 60.1261 29.048C60.0693 28.9973 59.9285 28.9297 59.711 28.8596C59.1774 28.6736 58.8044 28.4827 58.6018 28.2967C58.4041 28.1034 58.3053 27.8569 58.3053 27.5573C58.3053 27.2408 58.4338 26.992 58.6981 26.789C58.9625 26.5933 59.3009 26.4967 59.7209 26.4967C59.9383 26.4967 60.1483 26.5209 60.3707 26.5716C60.5881 26.6223 60.7981 26.6997 61.0081 26.7915V27.5477C60.7512 27.4269 60.5263 27.3327 60.3262 27.2747C60.1286 27.2119 59.9408 27.1877 59.7753 27.1877C59.5949 27.1877 59.4615 27.2094 59.3652 27.265C59.2713 27.3133 59.2243 27.3882 59.2243 27.4776C59.2243 27.5549 59.2688 27.6322 59.3553 27.6951C59.4368 27.7675 59.5628 27.8279 59.7333 27.8908C59.7654 27.9053 59.8222 27.9246 59.8963 27.9536C60.2521 28.0792 60.514 28.1952 60.6696 28.2894C60.8302 28.3836 60.9537 28.5117 61.0402 28.6663C61.1217 28.8185 61.1712 29.0046 61.1712 29.2099C61.1712 29.5554 61.0328 29.8163 60.7685 30.0145C60.5066 30.2102 60.1434 30.3068 59.6765 30.3068C59.4442 30.3068 59.2145 30.2778 58.9995 30.2174C58.7796 30.1594 58.5721 30.0652 58.3695 29.9492V29.9516Z" fill="white"/>
<path d="M61.7493 30.2464V26.5571H62.7202V30.2464H61.7493Z" fill="white"/>
<path d="M65.1389 27.3085C65.4576 27.3085 65.717 27.4075 65.9196 27.6081C66.1246 27.8159 66.221 28.0768 66.221 28.3981C66.221 28.7195 66.1246 28.9828 65.9196 29.1858C65.717 29.3935 65.4576 29.4926 65.1389 29.4926H64.4323V27.3061H65.1389V27.3085ZM64.9042 30.2464C65.2921 30.2464 65.5786 30.2198 65.7738 30.1788C65.969 30.1377 66.1568 30.0652 66.3149 29.9637C66.6015 29.7874 66.8164 29.5627 66.9671 29.2921C67.1227 29.0263 67.1944 28.7267 67.1944 28.3981C67.1944 28.0961 67.1376 27.8279 67.014 27.5791C66.8831 27.3327 66.7027 27.1176 66.4631 26.9388C66.2778 26.7987 66.0703 26.7069 65.8504 26.6465C65.6231 26.5837 65.3118 26.5547 64.9091 26.5547H63.496V30.244H64.9091L64.9042 30.2464Z" fill="white"/>
<path d="M71.8514 27.927V30.2464H70.9225V26.5571H71.7526L73.7735 28.7533V26.5571H74.7024V30.2464H73.9637L71.8514 27.927Z" fill="white"/>
<path d="M76.3552 30.2464V27.2457H75.1002V26.5571H78.5936V27.2457H77.3459V30.2464H76.3552Z" fill="white"/>
<path d="M79.0284 30.2464V26.5571H80.0018V30.2464H79.0284Z" fill="white"/>
<path d="M82.4501 27.4946L82.9788 28.8959H81.8671L82.4526 27.4946H82.4501ZM81.2914 30.2464L81.5904 29.5289H83.216L83.4877 30.2464H84.4883L83.0183 26.5571H81.9288L80.2785 30.2464H81.2865H81.2914Z" fill="white"/>
<path d="M84.7477 30.2464V26.5571H85.6989V29.5313H87.3146V30.2464H84.7477Z" fill="white"/>
<path d="M89.1873 29.9516V29.1278C89.469 29.2993 89.7062 29.4225 89.9038 29.4902C90.099 29.5627 90.2843 29.5941 90.4696 29.5941C90.6549 29.5941 90.7907 29.5675 90.8896 29.5119C90.981 29.4539 91.023 29.3718 91.023 29.2631C91.023 29.1737 90.9983 29.1084 90.9414 29.048C90.8846 28.9973 90.7487 28.9297 90.5264 28.8596C89.9878 28.6736 89.6197 28.4827 89.4196 28.2967C89.2145 28.1034 89.1206 27.8569 89.1206 27.5573C89.1206 27.2408 89.254 26.992 89.5159 26.789C89.7753 26.5933 90.1163 26.4967 90.5387 26.4967C90.7512 26.4967 90.9736 26.5209 91.1836 26.5716C91.4034 26.6223 91.611 26.6997 91.821 26.7915V27.5477C91.5665 27.4269 91.3417 27.3327 91.144 27.2747C90.9414 27.2119 90.7636 27.1877 90.5931 27.1877C90.4226 27.1877 90.2818 27.2094 90.183 27.265C90.0916 27.3133 90.0372 27.3882 90.0372 27.4776C90.0372 27.5549 90.0842 27.6322 90.1731 27.6951C90.2521 27.7675 90.3806 27.8279 90.5461 27.8908C90.5881 27.9053 90.6425 27.9246 90.7092 27.9536C91.0699 28.0792 91.3318 28.1952 91.485 28.2894C91.6505 28.3836 91.7715 28.5117 91.8531 28.6663C91.9395 28.8185 91.984 29.0046 91.984 29.2099C91.984 29.5554 91.8506 29.8163 91.5838 30.0145C91.3244 30.2102 90.9587 30.3068 90.4943 30.3068C90.2571 30.3068 90.0323 30.2778 89.8149 30.2174C89.5999 30.1594 89.385 30.0652 89.1873 29.9492V29.9516Z" fill="white"/>
<path d="M99.0152 29.9348C98.788 30.0652 98.5532 30.157 98.3185 30.2198C98.0814 30.2802 97.8343 30.3092 97.5774 30.3092C97.2809 30.3092 97.0141 30.2658 96.7621 30.1764C96.5175 30.0918 96.2976 29.9613 96.1123 29.7922C95.9246 29.6134 95.7788 29.4081 95.6825 29.1665C95.5762 28.9297 95.5293 28.676 95.5293 28.4006C95.5293 27.828 95.7195 27.3665 96.1148 27.0138C96.5027 26.6658 97.0166 26.4871 97.6614 26.4871C97.8911 26.4871 98.1135 26.5112 98.3334 26.5595C98.5557 26.6103 98.7707 26.6876 98.9807 26.7867V27.6492C98.7707 27.5139 98.5656 27.4172 98.3531 27.3568C98.1456 27.2892 97.9356 27.2626 97.7207 27.2626C97.3501 27.2626 97.0462 27.3593 96.8313 27.5622C96.6064 27.7651 96.5051 28.0454 96.5051 28.3982C96.5051 28.7509 96.6089 29.0215 96.8164 29.2293C97.0215 29.4322 97.3081 29.5385 97.6564 29.5385C97.8862 29.5385 98.1085 29.4999 98.3383 29.4177C98.5631 29.3404 98.7929 29.2293 99.0202 29.0722V29.9299L99.0152 29.9348Z" fill="white"/>
<path d="M103.114 26.5571V28.6736C103.114 29.1882 102.961 29.5917 102.645 29.8768C102.326 30.1691 101.893 30.3117 101.33 30.3117C100.767 30.3117 100.335 30.1715 100.018 29.8768C99.7021 29.5917 99.5464 29.1882 99.5464 28.6736V26.5571H100.498V28.6325C100.498 28.9273 100.572 29.152 100.713 29.309C100.851 29.4636 101.066 29.5409 101.338 29.5409C101.609 29.5409 101.817 29.4636 101.953 29.309C102.094 29.1544 102.173 28.9297 102.173 28.6325V26.5571H103.114Z" fill="white"/>
<path d="M107.457 30.2464V26.5571H108.426V30.2464H107.457Z" fill="white"/>
<path d="M110.103 30.2464V27.2457H108.856V26.5571H112.346V27.2457H111.096V30.2464H110.101H110.103Z" fill="white"/>
<path d="M113.757 30.2464V28.5769L112.277 26.5571H113.406L114.234 27.7507L115.084 26.5571H116.21L114.706 28.5697V30.2464H113.76H113.757Z" fill="white"/>
<path d="M117.91 29.9516V29.1278C118.192 29.2993 118.431 29.4225 118.624 29.4902C118.819 29.5627 119.005 29.5941 119.19 29.5941C119.375 29.5941 119.511 29.5675 119.607 29.5119C119.699 29.4539 119.748 29.3718 119.748 29.2631C119.748 29.1737 119.716 29.1084 119.664 29.048C119.602 28.9973 119.467 28.9297 119.247 28.8596C118.711 28.6736 118.342 28.4827 118.142 28.2967C117.942 28.1034 117.838 27.8569 117.838 27.5573C117.838 27.2408 117.969 26.992 118.234 26.789C118.496 26.5933 118.839 26.4967 119.259 26.4967C119.474 26.4967 119.686 26.5209 119.904 26.5716C120.121 26.6223 120.336 26.6997 120.549 26.7915V27.5477C120.297 27.4269 120.064 27.3327 119.857 27.2747C119.664 27.2119 119.476 27.1877 119.316 27.1877C119.136 27.1877 118.995 27.2094 118.903 27.265C118.804 27.3133 118.758 27.3882 118.758 27.4776C118.758 27.5549 118.8 27.6322 118.888 27.6951C118.97 27.7675 119.094 27.8279 119.264 27.8908C119.301 27.9053 119.358 27.9246 119.427 27.9536C119.788 28.0792 120.052 28.1952 120.208 28.2894C120.368 28.3836 120.492 28.5117 120.578 28.6663C120.66 28.8185 120.694 29.0046 120.694 29.2099C120.694 29.5554 120.571 29.8163 120.302 30.0145C120.042 30.2102 119.677 30.3068 119.207 30.3068C118.975 30.3068 118.75 30.2778 118.533 30.2174C118.313 30.1594 118.105 30.0652 117.905 29.9492L117.91 29.9516Z" fill="white"/>
<path d="M129.277 30.2778L127.568 26.5571H128.578L129.507 28.6953L130.51 26.5571H131.53L129.685 30.2778H129.28H129.277Z" fill="white"/>
<path d="M131.812 30.2464V26.5571H132.78V30.2464H131.812Z" fill="white"/>
<path d="M136.842 29.9348C136.62 30.0652 136.387 30.157 136.15 30.2198C135.911 30.2802 135.659 30.3092 135.399 30.3092C135.108 30.3092 134.836 30.2658 134.586 30.1764C134.342 30.0918 134.127 29.9613 133.942 29.7922C133.751 29.6134 133.608 29.4081 133.504 29.1665C133.406 28.9297 133.354 28.676 133.354 28.4006C133.354 27.828 133.554 27.3665 133.942 27.0138C134.334 26.6658 134.853 26.4871 135.486 26.4871C135.723 26.4871 135.945 26.5112 136.16 26.5595C136.383 26.6103 136.595 26.6876 136.81 26.7867V27.6492C136.6 27.5139 136.387 27.4172 136.182 27.3568C135.97 27.2892 135.765 27.2626 135.55 27.2626C135.169 27.2626 134.873 27.3593 134.661 27.5622C134.441 27.7651 134.334 28.0454 134.334 28.3982C134.334 28.7509 134.436 29.0215 134.643 29.2293C134.851 29.4322 135.132 29.5385 135.481 29.5385C135.703 29.5385 135.933 29.4999 136.16 29.4177C136.385 29.3404 136.617 29.2293 136.84 29.0722V29.9299L136.842 29.9348Z" fill="white"/>
<path d="M57.7939 26.5571H55.2764V27.236H57.7939V26.5571Z" fill="white"/>
<path d="M55.2764 27.9899V30.2465H57.8482V29.5579H56.2226V28.676H57.7346V27.9899H55.2764Z" fill="white"/>
<path d="M70.248 26.5571H67.7305V27.236H70.248V26.5571Z" fill="white"/>
<path d="M67.7305 27.9899V30.2465H70.2949V29.5579H68.6718V28.676H70.1739V27.9899H67.7305Z" fill="white"/>
<path d="M95.0697 26.5571H92.5547V27.236H95.0697V26.5571Z" fill="white"/>
<path d="M92.5547 27.9899V30.2465H95.1167V29.5579H93.496V28.676H95.0055V27.9899H92.5547Z" fill="white"/>
<path d="M123.797 26.5571H121.285V27.236H123.797V26.5571Z" fill="white"/>
<path d="M121.285 27.9899V30.2465H123.847V29.5579H122.229V28.676H123.728V27.9899H121.285Z" fill="white"/>
<path d="M139.935 26.5571H137.418V27.236H139.935V26.5571Z" fill="white"/>
<path d="M137.418 27.9899V30.2465H139.987V29.5579H138.364V28.676H139.868V27.9899H137.418Z" fill="white"/>
<path d="M50.7577 26.8301C50.5107 26.6489 50.1327 26.5571 49.6262 26.5571H48.2353V27.2457H49.641C49.8041 27.2457 49.9301 27.2819 50.019 27.3544C50.1129 27.4317 50.15 27.5332 50.15 27.6661C50.15 27.8111 50.1129 27.9149 50.0264 27.985C49.935 28.0599 49.8115 28.0913 49.6311 28.0913H48.2353V30.2464H49.1914V28.804H49.5521C50.0808 28.804 50.4687 28.7098 50.7355 28.5214C50.9949 28.3281 51.1258 28.0454 51.1258 27.6613C51.1258 27.2771 51.0072 27.0113 50.7602 26.8301H50.7577Z" fill="white"/>
<path d="M54.3647 28.9829C54.3079 28.8621 54.2486 28.7654 54.1696 28.6833C54.0979 28.6132 54.009 28.5528 53.9176 28.5214C54.1424 28.4151 54.3055 28.2967 54.4142 28.1493C54.5204 28.0044 54.5772 27.8352 54.5772 27.6299C54.5772 27.2675 54.4537 26.9945 54.2116 26.8229C53.967 26.649 53.5816 26.5596 53.0726 26.5596H51.6817V27.2143H53.0776C53.2481 27.2143 53.3765 27.2506 53.4605 27.323C53.5544 27.3979 53.5964 27.5067 53.5964 27.6395C53.5964 27.7869 53.5544 27.8981 53.4679 27.9657C53.3839 28.0406 53.253 28.0768 53.0776 28.0768H51.6817V30.2489H52.623V28.7509C52.6378 28.7509 52.6551 28.7509 52.6774 28.7437H52.7366C52.917 28.7437 53.0553 28.7775 53.1542 28.8379C53.2555 28.8983 53.3419 29.0167 53.4235 29.181L53.9052 30.2489H54.975L54.3672 28.9853L54.3647 28.9829Z" fill="white"/>
<path d="M106.558 28.9829C106.496 28.8621 106.434 28.7654 106.355 28.6833C106.281 28.6132 106.197 28.5528 106.101 28.5214C106.323 28.4151 106.494 28.2967 106.6 28.1493C106.709 28.0044 106.763 27.8352 106.763 27.6299C106.763 27.2675 106.639 26.9945 106.395 26.8229C106.153 26.649 105.775 26.5596 105.258 26.5596H103.865V27.2143H105.268C105.431 27.2143 105.557 27.2506 105.651 27.323C105.738 27.3979 105.782 27.5067 105.782 27.6395C105.782 27.7869 105.74 27.8981 105.654 27.9657C105.565 28.0406 105.436 28.0768 105.266 28.0768H103.863V30.2489H104.809V28.7509C104.826 28.7509 104.836 28.7509 104.858 28.7437H104.917C105.098 28.7437 105.239 28.7775 105.337 28.8379C105.436 28.8983 105.525 29.0167 105.602 29.181L106.086 30.2489H107.153L106.553 28.9853L106.558 28.9829Z" fill="white"/>
<path d="M127.17 28.9829C127.11 28.8621 127.046 28.7654 126.975 28.6833C126.893 28.6132 126.809 28.5528 126.723 28.5214C126.94 28.4151 127.103 28.2967 127.217 28.1493C127.325 28.0044 127.377 27.8352 127.377 27.6299C127.377 27.2675 127.256 26.9945 127.007 26.8229C126.767 26.649 126.387 26.5596 125.87 26.5596H124.477V27.2143H125.878C126.041 27.2143 126.174 27.2506 126.263 27.323C126.347 27.3979 126.396 27.5067 126.396 27.6395C126.396 27.7869 126.347 27.8981 126.266 27.9657C126.186 28.0406 126.051 28.0768 125.878 28.0768H124.477V30.2489H125.426V28.7509C125.426 28.7509 125.45 28.7509 125.475 28.7437H125.532C125.715 28.7437 125.853 28.7775 125.952 28.8379C126.056 28.8983 126.147 29.0167 126.219 29.181L126.7 30.2489H127.77L127.17 28.9853V28.9829Z" fill="white"/>
</g>
<g filter="url(#filter1_d_1733_3905)">
<path d="M69.9046 33.6555V35.7647C69.9046 36.2842 69.744 36.6852 69.4352 36.9752C69.1165 37.2603 68.6743 37.4076 68.1209 37.4076C67.5675 37.4076 67.1178 37.2627 66.7991 36.9752C66.4853 36.6852 66.3297 36.2842 66.3297 35.7647V33.6555H67.2883V35.7309C67.2883 36.0232 67.3476 36.2503 67.4958 36.405C67.644 36.5572 67.8491 36.6369 68.1209 36.6369C68.3926 36.6369 68.5977 36.5572 68.7434 36.4074C68.8818 36.2503 68.951 36.0232 68.951 35.7309V33.6555H69.9021H69.9046Z" fill="white"/>
</g>
<g filter="url(#filter2_d_1733_3905)">
<path d="M78.3465 37.34V33.6555H79.2927V36.6297H80.9134V37.34H78.3465Z" fill="white"/>
</g>
<g filter="url(#filter3_d_1733_3905)">
<path d="M83.93 37.34V33.6555H84.9009V37.34H83.93Z" fill="white"/>
</g>
<g filter="url(#filter4_d_1733_3905)">
<path d="M90.9415 37.0307C90.7142 37.1563 90.4795 37.2505 90.2448 37.3133C90.0101 37.3737 89.7581 37.4076 89.4962 37.4076C89.2096 37.4076 88.9378 37.3641 88.6883 37.2723C88.4437 37.1877 88.2214 37.0621 88.041 36.8881C87.8508 36.7117 87.7025 36.504 87.6013 36.2648C87.5074 36.028 87.458 35.7743 87.458 35.5013C87.458 34.9311 87.6507 34.4624 88.041 34.1169C88.4289 33.7666 88.9452 33.5902 89.5876 33.5902C89.8223 33.5902 90.0422 33.612 90.2596 33.6603C90.4795 33.7086 90.687 33.7835 90.9093 33.885V34.7475C90.6993 34.6146 90.4918 34.518 90.2793 34.4503C90.0743 34.3899 89.8643 34.3585 89.6543 34.3585C89.2714 34.3585 88.9724 34.4576 88.7624 34.6581C88.5351 34.861 88.4264 35.1413 88.4264 35.4989C88.4264 35.8565 88.5327 36.1222 88.7402 36.3252C88.9477 36.5354 89.2318 36.6368 89.5777 36.6368C89.805 36.6368 90.0298 36.5958 90.2596 36.5185C90.4893 36.4411 90.7142 36.3228 90.9415 36.1754V37.0282V37.0307Z" fill="white"/>
</g>
<g filter="url(#filter5_d_1733_3905)">
<path d="M98.6348 34.6823C98.8398 34.4697 99.0968 34.3683 99.4081 34.3683C99.7194 34.3683 99.9911 34.4721 100.189 34.6823C100.389 34.8974 100.493 35.1704 100.493 35.5014C100.493 35.8324 100.389 36.1006 100.189 36.3132C99.9911 36.5258 99.7243 36.6321 99.4081 36.6321C99.0918 36.6321 98.8374 36.5258 98.6348 36.3132C98.4322 36.1006 98.3309 35.83 98.3309 35.5014C98.3309 35.1728 98.4322 34.8974 98.6348 34.6823ZM97.5082 36.26C97.607 36.492 97.7577 36.6997 97.9529 36.8761C98.1432 37.0549 98.3556 37.1854 98.5953 37.2723C98.8423 37.3641 99.1067 37.4076 99.4081 37.4076C99.7095 37.4076 99.9738 37.3641 100.213 37.2723C100.463 37.1878 100.675 37.0549 100.873 36.8761C101.066 36.6997 101.212 36.492 101.315 36.26C101.409 36.0257 101.461 35.7744 101.461 35.5014C101.461 35.2284 101.407 34.9747 101.315 34.7403C101.212 34.5108 101.068 34.2982 100.873 34.117C100.683 33.943 100.461 33.8126 100.221 33.728C99.9813 33.641 99.7045 33.5975 99.4056 33.5975C99.1067 33.5975 98.8399 33.641 98.5928 33.7232C98.3532 33.8101 98.1308 33.9406 97.9504 34.117C97.7528 34.2982 97.6046 34.5108 97.5058 34.7403C97.402 34.9747 97.3526 35.2284 97.3526 35.5014C97.3526 35.7744 97.4069 36.0232 97.5058 36.26H97.5082Z" fill="white"/>
</g>
<g filter="url(#filter6_d_1733_3905)">
<path d="M119.227 34.6823C119.43 34.4697 119.689 34.3683 119.995 34.3683C120.302 34.3683 120.576 34.4721 120.776 34.6823C120.979 34.8974 121.082 35.1704 121.082 35.5014C121.082 35.8324 120.979 36.1006 120.776 36.3132C120.578 36.5258 120.316 36.6321 119.995 36.6321C119.674 36.6321 119.427 36.5258 119.227 36.3132C119.024 36.1006 118.918 35.83 118.918 35.5014C118.918 35.1728 119.024 34.8974 119.227 34.6823ZM118.103 36.26C118.202 36.492 118.35 36.6997 118.54 36.8761C118.735 37.0549 118.95 37.1854 119.19 37.2723C119.437 37.3641 119.699 37.4076 119.998 37.4076C120.297 37.4076 120.566 37.3641 120.811 37.2723C121.055 37.1878 121.27 37.0549 121.468 36.8761C121.656 36.6997 121.806 36.492 121.905 36.26C122.001 36.0257 122.058 35.7744 122.058 35.5014C122.058 35.2284 122.004 34.9747 121.905 34.7403C121.806 34.5108 121.656 34.2982 121.468 34.117C121.27 33.943 121.058 33.8126 120.818 33.728C120.571 33.641 120.302 33.5975 119.998 33.5975C119.694 33.5975 119.43 33.641 119.19 33.7232C118.95 33.8101 118.728 33.9406 118.54 34.117C118.345 34.2982 118.194 34.5108 118.103 34.7403C117.999 34.9747 117.95 35.2284 117.95 35.5014C117.95 35.7744 117.999 36.0232 118.103 36.26Z" fill="white"/>
</g>
<g filter="url(#filter7_d_1733_3905)">
<path d="M112.072 37.34V33.6555H113.016V35.3033L114.293 33.6555H115.353L114.019 35.3612L115.689 37.34H114.461L113.013 35.6125V37.34H112.07H112.072Z" fill="white"/>
</g>
<g filter="url(#filter8_d_1733_3905)">
<path d="M138.438 34.5929L138.964 35.9894H137.855L138.438 34.5929ZM137.279 37.34L137.583 36.6273H139.204L139.476 37.34H140.471L139.004 33.6555H137.919L136.274 37.34H137.279Z" fill="white"/>
</g>
<g filter="url(#filter9_d_1733_3905)">
<path d="M57.3641 33.6555H54.849V34.3296H57.3641V33.6555Z" fill="white"/>
<path d="M54.8366 35.0858V37.34H57.406V36.6538H55.7853V35.7744H57.285V35.0858H54.8366Z" fill="white"/>
</g>
<g filter="url(#filter10_d_1733_3905)">
<path d="M133.497 33.6555H130.977V34.3296H133.497V33.6555Z" fill="white"/>
<path d="M130.967 35.0858V37.34H133.531V36.6538H131.911V35.7744H133.415V35.0858H130.967Z" fill="white"/>
</g>
<g filter="url(#filter11_d_1733_3905)">
<path d="M63.4366 33.9309C63.1945 33.7497 62.8215 33.6627 62.3051 33.6627H60.9142V34.3513H62.32C62.4855 34.3513 62.6115 34.3851 62.7029 34.46C62.7894 34.5349 62.8388 34.6364 62.8388 34.7741C62.8388 34.9118 62.7992 35.0205 62.7078 35.093C62.6214 35.1607 62.4929 35.2017 62.3125 35.2017H60.9167V37.3544H61.8703V35.9145H62.2335C62.7597 35.9145 63.1525 35.8178 63.4144 35.6245C63.6738 35.4361 63.8097 35.1486 63.8097 34.7693C63.8097 34.3899 63.6862 34.1194 63.4391 33.9333L63.4366 33.9309Z" fill="white"/>
</g>
<g filter="url(#filter12_d_1733_3905)">
<path d="M50.9257 36.0618C50.8689 35.9435 50.8022 35.8444 50.733 35.7647C50.6564 35.6849 50.5724 35.627 50.4761 35.5955C50.6984 35.4965 50.8615 35.3757 50.9751 35.2283C51.0839 35.0833 51.1382 34.9118 51.1382 34.7064C51.1382 34.3392 51.0147 34.0662 50.775 33.8995C50.5255 33.7279 50.1401 33.6385 49.6312 33.6385H48.2378V34.2909H49.6361C49.8016 34.2909 49.935 34.3295 50.0289 34.4044C50.1104 34.4745 50.1549 34.5808 50.1549 34.7209C50.1549 34.8611 50.1129 34.9698 50.0314 35.0471C49.9474 35.1172 49.8165 35.1462 49.6361 35.1462H48.2378V37.323H49.1865V35.8251H49.2408C49.263 35.8202 49.2803 35.8202 49.2976 35.8202C49.478 35.8202 49.6139 35.8492 49.7176 35.9145C49.8165 35.9797 49.9005 36.0908 49.9869 36.2624L50.4588 37.323H51.5236L50.9233 36.0618H50.9257Z" fill="white"/>
</g>
<g filter="url(#filter13_d_1733_3905)">
<path d="M127.175 36.0836C127.115 35.9676 127.051 35.8661 126.972 35.7888C126.898 35.7091 126.814 35.6583 126.723 35.6197C126.945 35.5206 127.111 35.3974 127.217 35.25C127.325 35.1075 127.382 34.9311 127.382 34.7306C127.382 34.3658 127.259 34.0927 127.012 33.9236C126.767 33.7473 126.389 33.6603 125.87 33.6603H124.484V34.315H125.885C126.048 34.315 126.179 34.3488 126.268 34.4213C126.355 34.4962 126.404 34.6074 126.404 34.7402C126.404 34.8852 126.359 34.9988 126.273 35.0664C126.194 35.1341 126.058 35.1727 125.885 35.1727H124.484V37.3496H125.431V35.8468H125.48C125.51 35.842 125.522 35.842 125.537 35.842C125.715 35.842 125.863 35.871 125.952 35.9338C126.058 35.9942 126.149 36.1126 126.221 36.2865L126.705 37.3472H127.77L127.175 36.0812V36.0836Z" fill="white"/>
</g>
<g filter="url(#filter14_d_1733_3905)">
<path d="M105.839 34.3368V33.6555H103.401V34.3368H104.347H105.839Z" fill="white"/>
<path d="M103.403 37.34H104.349V35.8275H105.758V35.1341H104.349V35.1293H103.403V37.34Z" fill="white"/>
</g>
<g filter="url(#filter15_d_1733_3905)">
<path d="M75.2633 35.6849C75.1373 35.523 74.9421 35.4046 74.6802 35.3249C74.8433 35.2524 74.9668 35.1558 75.0557 35.0326C75.1373 34.9093 75.1793 34.7692 75.1793 34.6025C75.1793 34.2933 75.0557 34.0589 74.8013 33.8946C74.5567 33.7376 74.1762 33.6578 73.6821 33.6578H72.2887V34.3078H73.4499L73.7241 34.3102C73.8921 34.3102 74.0156 34.3464 74.1021 34.4165C74.1836 34.489 74.2281 34.588 74.2281 34.733C74.2281 34.8586 74.1861 34.9577 74.1021 35.0205C74.0206 35.0857 73.8921 35.1171 73.7241 35.1171H73.2423V35.1075H72.2912V35.7767H73.7785C74.0181 35.7767 74.1886 35.8154 74.2948 35.8878C74.4109 35.9652 74.4677 36.0763 74.4677 36.2382C74.4677 36.3904 74.4134 36.5015 74.3121 36.5668C74.2059 36.6344 74.0255 36.6658 73.7859 36.6658H73.2423V36.661H72.2912V37.3423H73.9736C74.4752 37.3423 74.8482 37.2529 75.0928 37.0814C75.3423 36.9074 75.4634 36.6417 75.4634 36.2913C75.4634 36.0473 75.3967 35.8444 75.2657 35.6873L75.2633 35.6849Z" fill="white"/>
</g>
<g filter="url(#filter16_d_1733_3905)">
<path d="M50.3921 14.4987H55.9657V16.5258H49.2111C48.8381 16.5258 48.5688 16.4437 48.3983 16.2818C48.218 16.0861 48.1266 15.7623 48.1266 15.3081V5.70435H54.4809V7.73141H50.3871V14.4963L50.3921 14.4987ZM58.5943 12.0489H57.6704V19.5603H55.5679V5.70435H57.6704V9.98799H58.5943V5.70435H60.7437V19.5603H58.5943V12.0489Z" fill="white"/>
<path d="M69.2894 11.9836V11.1404H71.5203V11.9836H77.1755V13.7836H63.6368V11.9836H69.2919H69.2894ZM69.2721 11.4473H65.1636C64.8029 11.4473 64.5361 11.3651 64.3681 11.2032C64.1877 11.0075 64.0963 10.6838 64.0963 10.2296V5.7019H76.711V7.40521H66.3742V7.87634H76.711V9.35254H66.3742V9.85508H76.711V11.4448H69.2721V11.4473ZM73.5264 13.2979C74.5147 14.0662 75.0088 15.0182 75.0088 16.1537C75.0088 17.3762 74.532 18.3934 73.5759 19.2052C72.684 19.9735 71.6315 20.3576 70.4234 20.3576C69.2153 20.3576 68.1604 19.9735 67.2685 19.2052C66.3223 18.3934 65.8504 17.3762 65.8504 16.1537C65.8504 15.0182 66.3445 14.0662 67.3327 13.2979C68.2469 12.5949 69.2771 12.2421 70.4234 12.2421C71.5698 12.2421 72.6148 12.5949 73.5289 13.2979H73.5264ZM68.7953 14.5639C68.3284 14.9964 68.0937 15.5328 68.0937 16.1706C68.0937 16.8085 68.3259 17.3327 68.7953 17.7773C69.2524 18.2001 69.7934 18.4103 70.421 18.4103C71.0485 18.4103 71.5722 18.2001 72.0293 17.7773C72.4962 17.3327 72.7309 16.7988 72.7309 16.1706C72.7309 15.5424 72.4962 14.9964 72.0293 14.5639C71.5722 14.1411 71.0361 13.9309 70.421 13.9309C69.8058 13.9309 69.2524 14.1411 68.7953 14.5639Z" fill="white"/>
<path d="M85.4173 7.68308H80.066V5.70435H87.6803V10.133H82.3118V10.8457H87.6803V12.7761H81.1333C80.7726 12.7761 80.5058 12.694 80.3378 12.5321C80.1574 12.3364 80.066 12.0126 80.066 11.5584V8.3789H85.4173V7.68067V7.68308ZM90.6079 13.037C91.5418 13.8367 92.0087 14.8491 92.0087 16.0716C92.0087 17.2941 91.5418 18.2895 90.6079 19.0892C89.7383 19.8454 88.7229 20.2248 87.5667 20.2248C86.4104 20.2248 85.3678 19.8454 84.5081 19.0892C83.594 18.2895 83.1394 17.282 83.1394 16.0716C83.1394 14.8611 83.5965 13.8392 84.5081 13.037C85.3678 12.2808 86.3882 11.9015 87.5667 11.9015C88.7451 11.9015 89.7383 12.2808 90.6079 13.037ZM86.0522 14.5301C85.6075 14.9409 85.3827 15.4555 85.3827 16.0716C85.3827 16.6877 85.605 17.1854 86.0522 17.5961C86.487 17.9972 87.0034 18.1953 87.5963 18.1953C88.1892 18.1953 88.6833 17.9948 89.1083 17.5961C89.553 17.1854 89.7778 16.6756 89.7778 16.0716C89.7778 15.4676 89.5555 14.9409 89.1083 14.5301C88.6833 14.1412 88.1794 13.9455 87.5963 13.9455C87.0132 13.9455 86.487 14.1412 86.0522 14.5301ZM90.4325 6.49922V5.70435H92.6782V12.7785H90.4325V11.1066H88.5055V9.27284H90.4325V8.33058H88.5055V6.49681H90.4325V6.49922Z" fill="white"/>
<path d="M103.82 5.70432V6.79154C103.82 8.92249 102.934 10.5122 101.16 11.5608C99.8231 12.3605 98.1135 12.793 96.0308 12.8582V10.7659C97.8689 10.7128 99.2747 10.3504 100.253 9.67871C101.061 9.11577 101.464 8.44653 101.464 7.66615H96.2408V5.7019H103.823L103.82 5.70432ZM106.718 12.9404C107.675 13.7618 108.151 14.7959 108.151 16.0401C108.151 17.2844 107.675 18.3016 106.718 19.123C105.827 19.901 104.786 20.2924 103.598 20.2924C102.41 20.2924 101.372 19.9034 100.493 19.123C99.5588 18.3016 99.0894 17.2723 99.0894 16.0401C99.0894 14.808 99.5563 13.7642 100.493 12.9404C101.372 12.1721 102.41 11.7879 103.598 11.7879C104.786 11.7879 105.829 12.1721 106.718 12.9404ZM102.069 14.4818C101.602 14.9046 101.367 15.4241 101.367 16.0401C101.367 16.6562 101.599 17.166 102.069 17.5985C102.514 18.0092 103.035 18.2146 103.63 18.2146C104.226 18.2146 104.744 18.0092 105.192 17.5985C105.649 17.1757 105.876 16.6562 105.876 16.0401C105.876 15.4241 105.649 14.8925 105.192 14.4818C104.754 14.0807 104.236 13.8826 103.63 13.8826C103.025 13.8826 102.516 14.0832 102.069 14.4818ZM106.4 6.61275V5.70432H108.646V12.3074H106.4V11.2371H104.376V9.40328H106.4V8.44653H104.376V6.61275H106.4Z" fill="white"/>
<path d="M119.437 13.1675V16.8012H125.075V18.8283H111.536V16.8012H117.176V13.1675H119.437ZM121.796 8.00923C122.051 8.27982 122.246 8.58183 122.384 8.91766C122.533 9.26315 122.607 9.63039 122.607 10.0218C122.607 11.2008 122.155 12.1793 121.253 12.9597C120.413 13.6966 119.432 14.0638 118.305 14.0638C117.179 14.0638 116.151 13.6966 115.311 12.9597C114.409 12.1817 113.957 11.2008 113.957 10.0218C113.957 9.65455 114.021 9.29215 114.15 8.93457C114.256 8.63257 114.419 8.32331 114.644 8.00923H112.334V5.99666H117.08V4.71375H119.486V5.99666H124.25V8.00923H121.796ZM116.793 8.64223C116.391 9.03121 116.188 9.49751 116.188 10.0387C116.188 10.5799 116.391 11.0776 116.793 11.4666C117.196 11.8676 117.703 12.0658 118.305 12.0658C118.869 12.0658 119.35 11.8652 119.756 11.4666C120.158 11.0776 120.361 10.6016 120.361 10.0387C120.361 9.47576 120.158 9.03363 119.756 8.64223C119.353 8.26291 118.869 8.07446 118.305 8.07446C117.71 8.07446 117.206 8.26291 116.793 8.64223Z" fill="white"/>
<path d="M133.302 8.25325C133.391 10.2658 133.722 11.7855 134.297 12.8123C134.816 13.7546 135.57 14.3151 136.553 14.4987V16.7529C135.491 16.6224 134.584 16.2721 133.833 15.6971C133.079 15.1124 132.499 14.3223 132.091 13.3294C131.671 14.303 131.041 15.0931 130.199 15.6971C129.423 16.26 128.568 16.6103 127.627 16.7529V14.5132C128.59 14.3078 129.336 13.7352 129.868 12.793C130.453 11.7541 130.792 10.2392 130.881 8.25083H127.827V6.22377H130.881V4.95776H133.319V6.22377H136.338V8.25083H133.302V8.25325ZM138.66 9.45402V5.70674H141V19.5627H138.66V11.4835H135.557V9.45644H138.66V9.45402Z" fill="white"/>
</g>
<g clip-path="url(#clip1_1733_3905)">
<g filter="url(#filter17_d_1733_3905)">
<path d="M0 20.0006C0 31.0289 9.2774 40.0012 20.6806 40.0012C32.0839 40.0012 41.3613 31.0301 41.3613 20.0006C41.3613 8.97113 32.0826 0 20.6806 0C9.27865 0 0 8.97355 0 20.0006ZM0.850334 20.0006C0.850334 9.42585 9.74633 0.823583 20.6806 0.823583C31.6149 0.823583 40.5084 9.42585 40.5084 20.0006C40.5084 30.5754 31.6137 39.1776 20.6806 39.1776C9.74758 39.1776 0.850334 30.5742 0.850334 20.0006Z" fill="#0C3388"/>
</g>
<path d="M40.586 20.0007C40.586 30.6323 31.6737 39.2515 20.6806 39.2515C9.68756 39.2515 0.774055 30.6323 0.774055 20.0007C0.774055 9.36907 9.68631 0.748657 20.6806 0.748657C31.6749 0.748657 40.586 9.36907 40.586 20.0007Z" fill="#0C3388"/>
<path d="M0.590233 20.0006C0.590233 30.7144 9.60252 39.4304 20.6806 39.4304C31.7587 39.4304 40.7698 30.7144 40.7698 20.0006C40.7698 9.28675 31.7575 0.570801 20.6806 0.570801C9.60377 0.570801 0.590233 9.28675 0.590233 20.0006ZM0.959128 20.0006C0.959128 9.48388 9.80635 0.927566 20.6806 0.927566C31.5549 0.927566 40.4009 9.48388 40.4009 20.0006C40.4009 30.5173 31.5536 39.0736 20.6806 39.0736C9.8076 39.0736 0.959128 30.5173 0.959128 20.0006Z" fill="white"/>
<path d="M35.9254 20.0007C35.9254 28.1434 29.0989 34.7441 20.6806 34.7441C12.2623 34.7441 5.43464 28.1422 5.43464 20.0007C5.43464 11.8592 12.2611 5.2572 20.6806 5.2572C29.1002 5.2572 35.9254 11.858 35.9254 20.0007Z" fill="#D8A300"/>
<path d="M35.4002 20.0006C35.4002 27.864 28.8088 34.2386 20.6806 34.2386C12.5524 34.2386 5.95734 27.864 5.95734 20.0006C5.95734 12.1373 12.5487 5.7627 20.6806 5.7627C28.8126 5.7627 35.4002 12.1373 35.4002 20.0006Z" fill="#0C3388"/>
<path d="M27.317 31.4619C29.9643 30.7278 31.5649 28.1797 31.0885 25.6158C31.056 25.4429 31.0159 25.2712 30.9647 25.0982C30.9134 24.9265 30.8546 24.7584 30.7858 24.5939C30.2069 23.5333 28.9226 22.9709 27.6809 23.3144C26.3178 23.6929 25.5063 25.0244 25.7989 26.3463C25.8201 26.4019 25.8389 26.4576 25.8564 26.5144C25.8739 26.5724 25.8889 26.6293 25.9002 26.6873C26.194 28.008 25.3825 29.3395 24.0207 29.718C22.7827 30.0627 21.4947 29.5003 20.9145 28.4373C21.9174 30.8548 24.6709 32.196 27.317 31.4619Z" fill="#D8A300"/>
<path d="M33.9521 17.5868C34.0471 14.9262 32.0376 12.6659 29.369 12.3103C29.189 12.2873 29.0076 12.2716 28.8213 12.2656C28.6362 12.2595 28.4512 12.2619 28.2736 12.2728C27.0506 12.4772 26.099 13.4882 26.0515 14.7351C26.004 16.1053 27.0656 17.2627 28.4512 17.4006C28.5137 17.3994 28.575 17.3981 28.6362 17.4006C28.6988 17.4018 28.7563 17.4066 28.8213 17.4127C30.2069 17.5517 31.2685 18.7091 31.2198 20.0793C31.1747 21.3262 30.2244 22.3372 29.0001 22.5404C31.6862 22.365 33.8571 20.2474 33.9521 17.5868Z" fill="#D8A300"/>
<path d="M22.4076 6.92251C19.8215 6.01185 16.9767 7.16438 15.8037 9.50935C15.7237 9.66657 15.6524 9.82984 15.5886 9.99794C15.5261 10.1673 15.4723 10.3354 15.4286 10.5059C15.2522 11.6947 15.9513 12.8811 17.1642 13.3068C18.4948 13.776 19.9616 13.158 20.5256 11.9233C20.5431 11.8664 20.5606 11.8096 20.5831 11.7552C20.6031 11.6983 20.6281 11.6451 20.6506 11.5907C21.2146 10.3559 22.6814 9.73792 24.0119 10.2072C25.2262 10.6341 25.9252 11.8205 25.7489 13.0093C26.4066 10.4817 24.9936 7.83316 22.4076 6.92251Z" fill="#D8A300"/>
<path d="M8.70592 14.3856C7.0115 16.4838 7.26535 19.4552 9.20987 21.2596C9.33867 21.3806 9.47872 21.4979 9.62253 21.6079C9.77009 21.7192 9.9189 21.8196 10.074 21.9127C11.1881 22.4424 12.5699 22.1667 13.3665 21.1822C14.2381 20.1023 14.083 18.5627 13.0439 17.6605C12.9926 17.6279 12.9438 17.5928 12.8951 17.5577C12.8463 17.5202 12.8 17.4828 12.755 17.4428C11.7146 16.5419 11.562 15.0023 12.4324 13.9224C13.2264 12.9391 14.6095 12.6622 15.7237 13.1931C13.4428 11.806 10.4003 12.2861 8.70592 14.3843V14.3856Z" fill="#D8A300"/>
<path d="M11.5908 29.5365C13.1314 31.7436 16.1301 32.4269 18.506 31.2006C18.6648 31.116 18.8224 31.0253 18.9762 30.9249C19.1313 30.8245 19.2751 30.7181 19.4164 30.6056C20.2805 29.7458 20.4355 28.3876 19.7165 27.3524C18.9224 26.2168 17.3618 25.883 16.1538 26.5615C16.1051 26.5966 16.0576 26.6316 16.0063 26.6643C15.9538 26.6981 15.9012 26.7284 15.85 26.7586C14.6408 27.4371 13.0814 27.1021 12.2886 25.9665C11.567 24.9325 11.7221 23.5731 12.5887 22.7133C10.5204 24.3834 10.0527 27.3306 11.5921 29.5365H11.5908Z" fill="#D8A300"/>
<path d="M23.0766 16.9059C23.2942 16.8442 23.5092 16.7958 23.7131 16.7559H23.7168C24.2258 16.6519 24.7435 16.9252 24.926 17.4066H24.9335C25.4588 17.4392 25.9302 17.7766 26.104 18.2906V18.293C26.2791 18.807 26.1015 19.3488 25.6963 19.6753L25.6901 19.679C25.8364 20.17 25.5838 20.6876 25.1099 20.892H25.1036C24.916 20.9754 24.7122 21.0576 24.4984 21.1338L24.4934 21.1375C24.6197 21.3189 24.736 21.4991 24.8385 21.6768V21.6793C25.0999 22.1171 24.9923 22.677 24.5734 22.9914L24.5772 22.9987C24.7085 23.4933 24.5209 24.0315 24.0682 24.3496H24.067C23.6155 24.6676 23.0253 24.6737 22.5814 24.4028L22.5751 24.3967C22.1399 24.6833 21.551 24.6108 21.2033 24.2359V24.2323C21.0595 24.0847 20.917 23.9239 20.7782 23.7509H20.7744C20.6344 23.9239 20.4943 24.0847 20.353 24.2335L20.3492 24.2359C20.0016 24.6108 19.4151 24.6846 18.9775 24.3967L18.9725 24.4028C18.5248 24.6737 17.9395 24.67 17.4869 24.3508H17.4844C17.0304 24.0303 16.8454 23.4933 16.9754 22.9975L16.9779 22.9902C16.5615 22.677 16.4515 22.1159 16.7116 21.6781L16.7153 21.6756C16.8179 21.4991 16.9304 21.3189 17.058 21.1363H17.0605C16.8466 21.0589 16.6453 20.979 16.4552 20.8932H16.4502C15.9763 20.6876 15.7224 20.1712 15.87 19.6802L15.8612 19.6765C15.4548 19.35 15.2798 18.8106 15.4523 18.2942V18.2918C15.6249 17.7766 16.0951 17.4392 16.624 17.4066H16.6315C16.8116 16.9276 17.3293 16.6531 17.8395 16.7571H17.8433C18.0471 16.797 18.2609 16.8478 18.4785 16.9071V16.9022C18.4873 16.6821 18.506 16.4717 18.531 16.271V16.2685C18.5861 15.7666 19.0137 15.3748 19.5427 15.3579V15.3494C19.7403 14.8753 20.2167 14.5464 20.7769 14.5464H20.7782C21.3396 14.5464 21.8148 14.8753 22.0111 15.3494V15.3579C22.5414 15.3748 22.9715 15.7654 23.0228 16.2685V16.271C23.0491 16.4717 23.0641 16.6821 23.0741 16.9022L23.0766 16.9047V16.9059Z" fill="#D8A300"/>
<path d="M38.7915 18.1104C38.854 18.0935 38.914 18.0802 38.9691 18.0681H38.9728C39.1154 18.0402 39.2604 18.1164 39.3117 18.2507H39.3129C39.463 18.2604 39.5956 18.3547 39.6456 18.4998C39.6943 18.6449 39.6456 18.7961 39.5293 18.888H39.5268C39.568 19.0271 39.4968 19.1734 39.3642 19.2315H39.363C39.3079 19.2545 39.2529 19.2774 39.1916 19.2992C39.2254 19.3512 39.2579 19.402 39.2879 19.4528H39.2904C39.363 19.5762 39.333 19.7334 39.2142 19.8217V19.8241C39.2529 19.9632 39.2004 20.1143 39.0728 20.2038C38.9453 20.2921 38.7802 20.2945 38.6539 20.2183H38.6514C38.5276 20.2969 38.3638 20.2776 38.265 20.1712C38.2263 20.1288 38.1838 20.0841 38.145 20.0357C38.1062 20.0841 38.065 20.1288 38.0262 20.1712C37.9299 20.2776 37.7623 20.2981 37.6398 20.2171H37.6385C37.5135 20.2945 37.3472 20.2933 37.2209 20.205H37.2184C37.0933 20.1143 37.0408 19.9632 37.0783 19.8241V19.8217C36.9608 19.7334 36.9295 19.5749 37.0058 19.4528C37.0345 19.4032 37.0671 19.3524 37.1008 19.3004H37.1021C37.0421 19.2786 36.987 19.2557 36.9295 19.2327C36.797 19.1746 36.7269 19.0295 36.7669 18.8916H36.7644C36.6506 18.7997 36.5994 18.6474 36.6506 18.5022C36.6982 18.3571 36.8307 18.2628 36.9783 18.2531H36.982C37.0333 18.1176 37.1784 18.0415 37.3222 18.0717H37.3234C37.3797 18.0838 37.441 18.0971 37.5022 18.114C37.5035 18.0511 37.5085 17.9919 37.516 17.935C37.5322 17.7935 37.6523 17.6823 37.8023 17.6786V17.6762C37.8561 17.542 37.9887 17.4501 38.1487 17.4501C38.3063 17.4501 38.4388 17.542 38.4951 17.6762V17.6786C38.6452 17.6835 38.764 17.7935 38.7815 17.935C38.7877 17.9919 38.7915 18.0511 38.794 18.1128L38.7915 18.1104Z" fill="#D8A300"/>
<path d="M3.92279 18.1104C3.98407 18.0935 4.04534 18.0802 4.10286 18.0681C4.24542 18.0402 4.39173 18.1164 4.443 18.2507H4.44425C4.59306 18.2604 4.72436 18.3547 4.77438 18.4998C4.82315 18.6449 4.77313 18.7961 4.65808 18.888H4.65683C4.6981 19.0271 4.62682 19.1734 4.49427 19.2315H4.49177C4.43925 19.2545 4.38172 19.2774 4.3217 19.2992C4.35671 19.3512 4.39048 19.402 4.41799 19.4528C4.49052 19.5762 4.4605 19.7334 4.34421 19.8217V19.8241C4.38047 19.9632 4.3292 20.1143 4.20165 20.2038C4.0741 20.2921 3.91154 20.2945 3.78399 20.2183H3.78274C3.66019 20.2969 3.49513 20.2776 3.39634 20.1712C3.35632 20.1288 3.31756 20.0841 3.27754 20.0357C3.23877 20.0841 3.19751 20.1288 3.15749 20.1712C3.0587 20.2776 2.89364 20.2981 2.77234 20.2171H2.77109C2.64479 20.2945 2.47973 20.2933 2.35218 20.205C2.22463 20.1143 2.17336 19.9632 2.20962 19.8241V19.8217C2.09207 19.7334 2.06081 19.5749 2.13459 19.4528H2.13584C2.1646 19.4032 2.19586 19.3524 2.23213 19.3004C2.17211 19.2786 2.11458 19.2557 2.06206 19.2327H2.06081C1.92826 19.1746 1.85698 19.0295 1.89825 18.8916H1.897C1.7832 18.7997 1.73318 18.6474 1.7807 18.5022C1.82947 18.3571 1.96327 18.2628 2.11083 18.2531H2.11333C2.1646 18.1176 2.30966 18.0415 2.45347 18.0717H2.45472C2.51099 18.0838 2.57101 18.0971 2.63229 18.114C2.63354 18.0511 2.63854 17.9919 2.64604 17.935C2.6623 17.7935 2.78235 17.6823 2.93115 17.6786V17.6762C2.98618 17.542 3.11998 17.4501 3.27879 17.4501C3.43635 17.4501 3.5689 17.542 3.62393 17.6762V17.6786C3.77398 17.6835 3.89403 17.7935 3.91029 17.935C3.91654 17.9919 3.92154 18.0511 3.92404 18.1128L3.92279 18.1104Z" fill="#D8A300"/>
<path d="M20.7769 19.3742L21.2408 16.6447L20.9632 19.3972L22.14 16.8781L21.1321 19.4649L22.9465 17.3279L21.2821 19.5762L23.6068 17.9641L21.3934 19.7189L24.0707 18.7441L21.4634 19.8846L24.3121 19.6137L21.4897 20.0635L24.3121 20.5122L21.4634 20.2413L24.0707 21.383L21.3934 20.407L23.6068 22.1606L21.2821 20.5509L22.9465 22.7991L21.1321 20.6598L22.14 23.2478L20.9632 20.7287L21.2408 23.4824L20.7769 20.7529L20.3105 23.4824L20.5918 20.7287L19.4114 23.2478L20.4205 20.6598L18.6061 22.7991L20.2717 20.5509L17.9483 22.1606L20.1579 20.407L17.4831 21.383L20.0866 20.2413L17.2405 20.5122L20.0629 20.0635L17.2405 19.6137L20.0866 19.8846L17.4831 18.7441L20.1579 19.7189L17.9483 17.9641L20.2717 19.5762L18.6061 17.3279L20.4205 19.4649L19.4114 16.8781L20.5918 19.3972L20.3105 16.6447L20.7769 19.3742Z" fill="#0C3388"/>
<path d="M7.43542 10.4864C7.41291 10.5287 7.37164 10.5989 7.31287 10.6968C7.2541 10.7948 7.16156 10.9278 7.03651 11.0947L6.71514 11.5192L4.88317 10.2034L5.53592 9.35323L5.87481 9.59631L5.4634 10.1321L6.6176 10.9617L6.80017 10.7234C6.8627 10.6376 6.92397 10.5481 6.98274 10.455C7.04152 10.3631 7.08278 10.2941 7.10654 10.2494L7.43667 10.4864H7.43542ZM8.84347 9.93493L8.61088 10.2385L7.21408 9.23471L7.01025 9.50077L8.282 10.4151L8.04941 10.7186L5.49841 8.8852L5.731 8.58165L6.66387 9.25164L6.8677 8.98679L5.87231 8.27084L6.1049 7.96729L8.84222 9.93372L8.84347 9.93493Z" fill="white"/>
<path d="M15.4923 3.08025L13.6391 3.66438L13.5278 3.33301L15.381 2.74888L15.4923 3.08025ZM14.8821 2.71623L13.9067 3.02341L13.7967 2.69567L14.7721 2.38849L14.8821 2.71623ZM15.6286 3.79741C15.6774 3.94253 15.6461 4.09249 15.5336 4.24971C15.4211 4.40572 15.2372 4.52424 14.9809 4.60527C14.737 4.68146 14.5195 4.68992 14.3269 4.62825C14.1343 4.56657 14.013 4.46498 13.9655 4.32228C13.913 4.16748 13.948 4.01268 14.068 3.85546C14.1893 3.69945 14.3706 3.58214 14.6145 3.50595C14.8708 3.42492 15.0909 3.41525 15.276 3.47692C15.4611 3.5386 15.5786 3.64503 15.6299 3.79741H15.6286ZM15.2122 3.92439C15.1885 3.85304 15.1322 3.8095 15.0447 3.79136C14.9571 3.77322 14.8496 3.78531 14.7245 3.82522C14.5957 3.86513 14.5019 3.91834 14.4394 3.98244C14.3781 4.04654 14.3594 4.11426 14.3831 4.18562C14.4057 4.25455 14.4619 4.29809 14.552 4.31623C14.6408 4.33437 14.7495 4.32227 14.8783 4.28237C15.0071 4.24246 15.1009 4.19045 15.1597 4.12636C15.2185 4.06347 15.2372 3.99574 15.2122 3.92439ZM16.9954 5.10111L14.8371 5.78199L14.5445 4.91245L14.9521 4.78426L15.1234 5.2934L16.8741 4.74072L16.9954 5.10111ZM16.7028 3.21086L16.2914 3.34026L16.6378 4.36702L16.2526 4.48796L15.4773 2.19015L15.8625 2.06921L16.1638 2.96294L16.5753 2.83354L16.7028 3.21086Z" fill="white"/>
<path d="M26.6617 5.80865L24.4308 5.13745L24.7585 4.11795L25.1586 4.23768L24.9473 4.89558L26.778 5.44705L26.6617 5.80865ZM25.9965 4.1627L24.5209 3.71886L25.0286 2.14062L26.5042 2.58446L25.9965 4.1627ZM25.7301 3.68258L26.0027 2.8348L25.2962 2.62196L25.0236 3.46973L25.7301 3.68258ZM26.8518 4.98628L26.4654 4.87018L27.1982 2.59414L27.5846 2.71024L26.8518 4.98628Z" fill="white"/>
<path d="M35.4439 10.8746L34.6036 9.81036L34.1534 10.1429L34.7612 10.9121L33.8683 11.5712L33.6232 11.2604L34.2022 10.8323L33.0292 9.34717L33.3431 9.11497L33.8958 9.81519L34.3447 9.48262L33.5807 8.51512L33.8921 8.28534L35.1938 9.93371C35.2939 9.88775 35.4114 9.83212 35.544 9.76561C35.6765 9.7003 35.8041 9.63016 35.9241 9.55518L34.7474 8.06523L35.0588 7.83545L36.5193 9.68579C36.4693 9.72207 36.3855 9.77407 36.2667 9.84059C36.1479 9.9071 36.0454 9.96153 35.9616 10.0039C35.8453 10.0619 35.749 10.1103 35.6728 10.1478C35.5965 10.1853 35.5214 10.2203 35.4464 10.253L35.7553 10.6448L35.4439 10.8746Z" fill="white"/>
<path d="M4.42424 28.3732C4.39423 28.3345 4.34671 28.2692 4.28043 28.176C4.21416 28.0829 4.12912 27.945 4.02658 27.7636L3.76773 27.3004L5.78227 26.2616L6.29748 27.1964L5.92483 27.3887L5.5997 26.7998L4.33045 27.454L4.47551 27.7165C4.52928 27.8084 4.5868 27.9003 4.64808 27.991C4.70935 28.0817 4.75562 28.147 4.78688 28.1869L4.42424 28.3744V28.3732ZM4.33795 29.8401L4.15413 29.5063L5.68974 28.7142L5.52842 28.4227L4.12912 29.1435L3.9453 28.8097L6.7489 27.3645L6.93272 27.6983L5.90607 28.2268L6.06738 28.5183L7.16156 27.9535L7.34539 28.2873L4.3367 29.8389L4.33795 29.8401Z" fill="white"/>
<path d="M10.3578 35.0912C10.2528 35.2242 10.0827 35.2702 9.84637 35.2279C9.61003 35.1855 9.33367 35.0477 9.01604 34.8131C8.69967 34.5796 8.49084 34.3571 8.3908 34.1443C8.28951 33.9314 8.29076 33.7585 8.3958 33.6254C8.50209 33.49 8.67216 33.4428 8.9035 33.484C9.13609 33.5251 9.41245 33.6641 9.73508 33.9012C10.0527 34.1358 10.2628 34.3595 10.3653 34.5712C10.4679 34.7828 10.4654 34.9558 10.3591 35.0912H10.3578ZM11.0543 34.6752L8.61464 32.8756L8.83972 32.5902L9.87638 33.3545L10.0289 33.1611L9.2974 32.6205L10.1615 31.5236L11.9947 32.8756L11.7809 33.1465L10.2803 32.04L10.1602 32.1923L11.6521 33.2929L11.4545 33.5432L9.96266 32.4427L9.84262 32.5951L11.377 33.7258L11.1631 33.9967L10.3916 33.4283L10.239 33.6218L11.2794 34.3886L11.0543 34.674V34.6752ZM9.97142 34.7913C10.0189 34.732 9.99893 34.6474 9.9139 34.5361C9.82886 34.4261 9.69756 34.3063 9.52249 34.1769C9.34367 34.0451 9.18861 33.952 9.05981 33.8988C8.92976 33.8456 8.84097 33.8504 8.79346 33.9121C8.74844 33.9701 8.76469 34.056 8.84222 34.1721C8.92101 34.287 9.04981 34.4115 9.22863 34.5446C9.4037 34.674 9.56001 34.7623 9.69631 34.8094C9.83261 34.8566 9.92515 34.8505 9.97142 34.7913Z" fill="white"/>
<path d="M17.3043 36.823C17.1868 36.8157 17.0254 36.7988 16.8204 36.7734C16.6153 36.7468 16.4115 36.7141 16.2064 36.6718L15.5111 36.5267L15.7524 35.477L16.8179 35.7055L16.8916 35.3838L15.8262 35.1553L15.91 34.7888L17.3706 35.102L17.1317 36.1445L16.0663 35.916L15.99 36.2485L16.454 36.3441C16.6003 36.3731 16.7641 36.3985 16.9454 36.4203C17.1267 36.4432 17.2743 36.4578 17.3868 36.4674L17.3056 36.8218L17.3043 36.823ZM16.8816 36.9657C17.263 37.0479 17.5406 37.1689 17.7145 37.3285C17.8883 37.4881 17.9546 37.6574 17.9145 37.8364C17.8733 38.0166 17.7382 38.1436 17.5119 38.2162C17.2843 38.2887 16.9804 38.2839 16.599 38.2029C16.2201 38.1219 15.9425 38.0009 15.7687 37.8425C15.5949 37.6828 15.5286 37.5135 15.5699 37.3333C15.6111 37.1556 15.7449 37.0298 15.9725 36.9548C16.2001 36.881 16.504 36.8847 16.8829 36.9657H16.8816ZM16.8054 37.3152C16.5803 37.2668 16.3927 37.2511 16.2426 37.2692C16.0926 37.2874 16.0075 37.3394 15.9863 37.4277C15.9675 37.5099 16.0225 37.5909 16.1501 37.6695C16.2789 37.7482 16.4552 37.8122 16.6803 37.8606C16.9004 37.9078 17.0842 37.9211 17.2318 37.9017C17.3793 37.8824 17.4631 37.8292 17.4819 37.7445C17.5019 37.6587 17.4481 37.5776 17.3231 37.5014C17.198 37.4252 17.0254 37.3624 16.8054 37.3152ZM18.0333 37.1483L17.6382 37.0636L17.7832 36.4311L17.2855 36.3247L17.3643 35.9813L17.862 36.0877L17.9183 35.8386L17.4218 35.7321L17.5006 35.3887L17.9971 35.4951L18.0884 35.096L18.4835 35.1807L18.0321 37.1495L18.0333 37.1483Z" fill="white"/>
<path d="M24.3333 35.0803C24.3708 35.252 24.3721 35.4564 24.3358 35.6971C24.2996 35.9365 24.217 36.153 24.0882 36.3453C23.9644 36.5267 23.8319 36.6754 23.6893 36.7915C23.548 36.9076 23.4054 37.0044 23.2629 37.083L22.9615 36.8496C23.0866 36.7807 23.2054 36.702 23.3192 36.615C23.433 36.5279 23.5455 36.4166 23.6555 36.2812C23.7681 36.1433 23.8431 36.0127 23.8831 35.8893C23.9219 35.766 23.9394 35.6535 23.9332 35.5495L22.9103 35.7612L22.829 35.3911L24.3333 35.0803ZM25.8889 37.2608C25.9314 37.4567 25.8689 37.6381 25.7001 37.8062C25.5313 37.9743 25.2574 38.0965 24.8773 38.1751C24.4996 38.2537 24.1983 38.2488 23.9719 38.163C23.7468 38.0771 23.6118 37.9356 23.568 37.7409C23.5255 37.545 23.588 37.3624 23.7568 37.1918C23.9257 37.0213 24.1995 36.8968 24.5772 36.8194C24.9573 36.7407 25.2599 36.7456 25.485 36.8351C25.7101 36.9234 25.8452 37.0661 25.8877 37.262L25.8889 37.2608ZM25.4725 37.3503C25.45 37.2475 25.3625 37.1797 25.2099 37.1471C25.0573 37.1144 24.8735 37.1205 24.6572 37.1652C24.4371 37.2112 24.2658 37.2777 24.1432 37.3672C24.0207 37.4567 23.9719 37.551 23.9944 37.6514C24.0169 37.7518 24.102 37.8195 24.252 37.8546C24.4008 37.8897 24.5859 37.8848 24.8073 37.8389C25.0236 37.7941 25.1937 37.7264 25.3187 37.6333C25.4438 37.5413 25.495 37.4458 25.4738 37.3491L25.4725 37.3503ZM25.7039 36.5557L25.3074 36.6379L25.2299 36.286L24.6359 36.4082L24.5572 36.049L25.1499 35.9268L25.0761 35.5894L24.5334 35.7019L24.4534 35.3391L24.9961 35.2266L24.891 34.7537L25.2862 34.6715L25.7026 36.5557H25.7039Z" fill="white"/>
<path d="M31.8225 32.3036L29.7467 33.8093L29.5166 33.513L31.5924 32.0073L31.8225 32.3036ZM30.9497 32.1681L29.8505 32.9663L29.6229 32.6725L30.7221 31.8743L30.9497 32.1681ZM33.2543 33.7609L30.7996 35.5423L30.5645 35.24L31.6187 34.4744L31.4186 34.2168C31.2023 34.3499 30.9984 34.4224 30.8084 34.4369C30.6183 34.4514 30.4732 34.3934 30.3732 34.2628C30.2581 34.1152 30.2519 33.9411 30.3544 33.7415C30.457 33.542 30.632 33.3521 30.8796 33.1731C31.1285 32.9929 31.3673 32.8829 31.5937 32.8466C31.8213 32.8103 31.9901 32.8635 32.1026 33.0074C32.2039 33.1369 32.2202 33.288 32.1526 33.461C32.0851 33.6327 31.9563 33.8008 31.7637 33.9653L31.9638 34.2229L33.018 33.4573L33.2531 33.7597L33.2543 33.7609ZM31.735 33.2759C31.685 33.2118 31.5962 33.201 31.4674 33.2433C31.3386 33.2856 31.2123 33.3509 31.0872 33.4416C30.9622 33.5323 30.8609 33.6315 30.7821 33.7403C30.7033 33.8492 30.6883 33.935 30.7383 33.9991C30.7871 34.0608 30.8759 34.0717 31.0059 34.0294C31.136 33.9883 31.2635 33.9217 31.3886 33.831C31.5136 33.7403 31.6137 33.6412 31.6912 33.5323C31.7687 33.4235 31.7825 33.3376 31.735 33.2759Z" fill="white"/>
<path d="M35.1113 27.5217L34.6286 28.413L34.291 28.2425L34.7737 27.3512L35.1113 27.5217ZM37.1846 28.0514C37.1996 28.1179 37.2146 28.17 37.2284 28.2087C37.2471 28.2631 37.2746 28.3332 37.3109 28.4179C37.1396 28.4687 36.9295 28.5062 36.6782 28.5279C36.4268 28.5509 36.1992 28.5497 35.9954 28.5255C36.143 28.6827 36.2743 28.875 36.3893 29.1024C36.4968 29.3152 36.5681 29.5124 36.6044 29.6926L36.2117 29.8074C36.1667 29.5257 36.0804 29.2632 35.9504 29.0201C35.7841 28.7057 35.569 28.4808 35.3064 28.3477L34.9687 28.9718L34.6386 28.8049L35.4264 27.3488L35.7566 27.5157L35.4614 28.0611C35.7015 28.1833 35.9941 28.234 36.3418 28.2171C36.6231 28.2038 36.9033 28.1482 37.1821 28.0502L37.1846 28.0514ZM38.2563 27.8882L38.0887 28.1966L36.6156 27.4504L36.303 28.0272L35.9654 27.8567L36.278 27.2799L34.8424 26.553L35.01 26.2446L38.2563 27.8894V27.8882Z" fill="white"/>
</g>
</g>
<defs>
<filter id="filter0_d_1733_3905" x="44.2353" y="26.4871" width="99.7518" height="11.8246" filterUnits="userSpaceOnUse" color-interpolation-filters="sRGB">
<feFlood flood-opacity="0" result="BackgroundImageFix"/>
<feColorMatrix in="SourceAlpha" type="matrix" values="0 0 0 0 0 0 0 0 0 0 0 0 0 0 0 0 0 0 127 0" result="hardAlpha"/>
<feOffset dy="4"/>
<feGaussianBlur stdDeviation="2"/>
<feComposite in2="hardAlpha" operator="out"/>
<feColorMatrix type="matrix" values="0 0 0 0 0 0 0 0 0 0 0 0 0 0 0 0 0 0 0.8 0"/>
<feBlend mode="normal" in2="BackgroundImageFix" result="effect1_dropShadow_1733_3905"/>
<feBlend mode="normal" in="SourceGraphic" in2="effect1_dropShadow_1733_3905" result="shape"/>
</filter>
<filter id="filter1_d_1733_3905" x="62.3297" y="33.6555" width="11.5749" height="11.7521" filterUnits="userSpaceOnUse" color-interpolation-filters="sRGB">
<feFlood flood-opacity="0" result="BackgroundImageFix"/>
<feColorMatrix in="SourceAlpha" type="matrix" values="0 0 0 0 0 0 0 0 0 0 0 0 0 0 0 0 0 0 127 0" result="hardAlpha"/>
<feOffset dy="4"/>
<feGaussianBlur stdDeviation="2"/>
<feComposite in2="hardAlpha" operator="out"/>
<feColorMatrix type="matrix" values="0 0 0 0 0 0 0 0 0 0 0 0 0 0 0 0 0 0 0.8 0"/>
<feBlend mode="normal" in2="BackgroundImageFix" result="effect1_dropShadow_1733_3905"/>
<feBlend mode="normal" in="SourceGraphic" in2="effect1_dropShadow_1733_3905" result="shape"/>
</filter>
<filter id="filter2_d_1733_3905" x="74.3465" y="33.6555" width="10.5669" height="11.6844" filterUnits="userSpaceOnUse" color-interpolation-filters="sRGB">
<feFlood flood-opacity="0" result="BackgroundImageFix"/>
<feColorMatrix in="SourceAlpha" type="matrix" values="0 0 0 0 0 0 0 0 0 0 0 0 0 0 0 0 0 0 127 0" result="hardAlpha"/>
<feOffset dy="4"/>
<feGaussianBlur stdDeviation="2"/>
<feComposite in2="hardAlpha" operator="out"/>
<feColorMatrix type="matrix" values="0 0 0 0 0 0 0 0 0 0 0 0 0 0 0 0 0 0 0.8 0"/>
<feBlend mode="normal" in2="BackgroundImageFix" result="effect1_dropShadow_1733_3905"/>
<feBlend mode="normal" in="SourceGraphic" in2="effect1_dropShadow_1733_3905" result="shape"/>
</filter>
<filter id="filter3_d_1733_3905" x="79.93" y="33.6555" width="8.97093" height="11.6844" filterUnits="userSpaceOnUse" color-interpolation-filters="sRGB">
<feFlood flood-opacity="0" result="BackgroundImageFix"/>
<feColorMatrix in="SourceAlpha" type="matrix" values="0 0 0 0 0 0 0 0 0 0 0 0 0 0 0 0 0 0 127 0" result="hardAlpha"/>
<feOffset dy="4"/>
<feGaussianBlur stdDeviation="2"/>
<feComposite in2="hardAlpha" operator="out"/>
<feColorMatrix type="matrix" values="0 0 0 0 0 0 0 0 0 0 0 0 0 0 0 0 0 0 0.8 0"/>
<feBlend mode="normal" in2="BackgroundImageFix" result="effect1_dropShadow_1733_3905"/>
<feBlend mode="normal" in="SourceGraphic" in2="effect1_dropShadow_1733_3905" result="shape"/>
</filter>
<filter id="filter4_d_1733_3905" x="83.458" y="33.5902" width="11.4835" height="11.8174" filterUnits="userSpaceOnUse" color-interpolation-filters="sRGB">
<feFlood flood-opacity="0" result="BackgroundImageFix"/>
<feColorMatrix in="SourceAlpha" type="matrix" values="0 0 0 0 0 0 0 0 0 0 0 0 0 0 0 0 0 0 127 0" result="hardAlpha"/>
<feOffset dy="4"/>
<feGaussianBlur stdDeviation="2"/>
<feComposite in2="hardAlpha" operator="out"/>
<feColorMatrix type="matrix" values="0 0 0 0 0 0 0 0 0 0 0 0 0 0 0 0 0 0 0.8 0"/>
<feBlend mode="normal" in2="BackgroundImageFix" result="effect1_dropShadow_1733_3905"/>
<feBlend mode="normal" in="SourceGraphic" in2="effect1_dropShadow_1733_3905" result="shape"/>
</filter>
<filter id="filter5_d_1733_3905" x="93.3526" y="33.5975" width="12.1086" height="11.8101" filterUnits="userSpaceOnUse" color-interpolation-filters="sRGB">
<feFlood flood-opacity="0" result="BackgroundImageFix"/>
<feColorMatrix in="SourceAlpha" type="matrix" values="0 0 0 0 0 0 0 0 0 0 0 0 0 0 0 0 0 0 127 0" result="hardAlpha"/>
<feOffset dy="4"/>
<feGaussianBlur stdDeviation="2"/>
<feComposite in2="hardAlpha" operator="out"/>
<feColorMatrix type="matrix" values="0 0 0 0 0 0 0 0 0 0 0 0 0 0 0 0 0 0 0.8 0"/>
<feBlend mode="normal" in2="BackgroundImageFix" result="effect1_dropShadow_1733_3905"/>
<feBlend mode="normal" in="SourceGraphic" in2="effect1_dropShadow_1733_3905" result="shape"/>
</filter>
<filter id="filter6_d_1733_3905" x="113.95" y="33.5975" width="12.1085" height="11.8101" filterUnits="userSpaceOnUse" color-interpolation-filters="sRGB">
<feFlood flood-opacity="0" result="BackgroundImageFix"/>
<feColorMatrix in="SourceAlpha" type="matrix" values="0 0 0 0 0 0 0 0 0 0 0 0 0 0 0 0 0 0 127 0" result="hardAlpha"/>
<feOffset dy="4"/>
<feGaussianBlur stdDeviation="2"/>
<feComposite in2="hardAlpha" operator="out"/>
<feColorMatrix type="matrix" values="0 0 0 0 0 0 0 0 0 0 0 0 0 0 0 0 0 0 0.8 0"/>
<feBlend mode="normal" in2="BackgroundImageFix" result="effect1_dropShadow_1733_3905"/>
<feBlend mode="normal" in="SourceGraphic" in2="effect1_dropShadow_1733_3905" result="shape"/>
</filter>
<filter id="filter7_d_1733_3905" x="108.07" y="33.6555" width="11.6194" height="11.6844" filterUnits="userSpaceOnUse" color-interpolation-filters="sRGB">
<feFlood flood-opacity="0" result="BackgroundImageFix"/>
<feColorMatrix in="SourceAlpha" type="matrix" values="0 0 0 0 0 0 0 0 0 0 0 0 0 0 0 0 0 0 127 0" result="hardAlpha"/>
<feOffset dy="4"/>
<feGaussianBlur stdDeviation="2"/>
<feComposite in2="hardAlpha" operator="out"/>
<feColorMatrix type="matrix" values="0 0 0 0 0 0 0 0 0 0 0 0 0 0 0 0 0 0 0.8 0"/>
<feBlend mode="normal" in2="BackgroundImageFix" result="effect1_dropShadow_1733_3905"/>
<feBlend mode="normal" in="SourceGraphic" in2="effect1_dropShadow_1733_3905" result="shape"/>
</filter>
<filter id="filter8_d_1733_3905" x="132.274" y="33.6555" width="12.1975" height="11.6844" filterUnits="userSpaceOnUse" color-interpolation-filters="sRGB">
<feFlood flood-opacity="0" result="BackgroundImageFix"/>
<feColorMatrix in="SourceAlpha" type="matrix" values="0 0 0 0 0 0 0 0 0 0 0 0 0 0 0 0 0 0 127 0" result="hardAlpha"/>
<feOffset dy="4"/>
<feGaussianBlur stdDeviation="2"/>
<feComposite in2="hardAlpha" operator="out"/>
<feColorMatrix type="matrix" values="0 0 0 0 0 0 0 0 0 0 0 0 0 0 0 0 0 0 0.8 0"/>
<feBlend mode="normal" in2="BackgroundImageFix" result="effect1_dropShadow_1733_3905"/>
<feBlend mode="normal" in="SourceGraphic" in2="effect1_dropShadow_1733_3905" result="shape"/>
</filter>
<filter id="filter9_d_1733_3905" x="50.8366" y="33.6555" width="10.5694" height="11.6844" filterUnits="userSpaceOnUse" color-interpolation-filters="sRGB">
<feFlood flood-opacity="0" result="BackgroundImageFix"/>
<feColorMatrix in="SourceAlpha" type="matrix" values="0 0 0 0 0 0 0 0 0 0 0 0 0 0 0 0 0 0 127 0" result="hardAlpha"/>
<feOffset dy="4"/>
<feGaussianBlur stdDeviation="2"/>
<feComposite in2="hardAlpha" operator="out"/>
<feColorMatrix type="matrix" values="0 0 0 0 0 0 0 0 0 0 0 0 0 0 0 0 0 0 0.8 0"/>
<feBlend mode="normal" in2="BackgroundImageFix" result="effect1_dropShadow_1733_3905"/>
<feBlend mode="normal" in="SourceGraphic" in2="effect1_dropShadow_1733_3905" result="shape"/>
</filter>
<filter id="filter10_d_1733_3905" x="126.967" y="33.6555" width="10.5645" height="11.6844" filterUnits="userSpaceOnUse" color-interpolation-filters="sRGB">
<feFlood flood-opacity="0" result="BackgroundImageFix"/>
<feColorMatrix in="SourceAlpha" type="matrix" values="0 0 0 0 0 0 0 0 0 0 0 0 0 0 0 0 0 0 127 0" result="hardAlpha"/>
<feOffset dy="4"/>
<feGaussianBlur stdDeviation="2"/>
<feComposite in2="hardAlpha" operator="out"/>
<feColorMatrix type="matrix" values="0 0 0 0 0 0 0 0 0 0 0 0 0 0 0 0 0 0 0.8 0"/>
<feBlend mode="normal" in2="BackgroundImageFix" result="effect1_dropShadow_1733_3905"/>
<feBlend mode="normal" in="SourceGraphic" in2="effect1_dropShadow_1733_3905" result="shape"/>
</filter>
<filter id="filter11_d_1733_3905" x="56.9142" y="33.6627" width="10.8955" height="11.6918" filterUnits="userSpaceOnUse" color-interpolation-filters="sRGB">
<feFlood flood-opacity="0" result="BackgroundImageFix"/>
<feColorMatrix in="SourceAlpha" type="matrix" values="0 0 0 0 0 0 0 0 0 0 0 0 0 0 0 0 0 0 127 0" result="hardAlpha"/>
<feOffset dy="4"/>
<feGaussianBlur stdDeviation="2"/>
<feComposite in2="hardAlpha" operator="out"/>
<feColorMatrix type="matrix" values="0 0 0 0 0 0 0 0 0 0 0 0 0 0 0 0 0 0 0.8 0"/>
<feBlend mode="normal" in2="BackgroundImageFix" result="effect1_dropShadow_1733_3905"/>
<feBlend mode="normal" in="SourceGraphic" in2="effect1_dropShadow_1733_3905" result="shape"/>
</filter>
<filter id="filter12_d_1733_3905" x="44.2378" y="33.6385" width="11.2859" height="11.6844" filterUnits="userSpaceOnUse" color-interpolation-filters="sRGB">
<feFlood flood-opacity="0" result="BackgroundImageFix"/>
<feColorMatrix in="SourceAlpha" type="matrix" values="0 0 0 0 0 0 0 0 0 0 0 0 0 0 0 0 0 0 127 0" result="hardAlpha"/>
<feOffset dy="4"/>
<feGaussianBlur stdDeviation="2"/>
<feComposite in2="hardAlpha" operator="out"/>
<feColorMatrix type="matrix" values="0 0 0 0 0 0 0 0 0 0 0 0 0 0 0 0 0 0 0.8 0"/>
<feBlend mode="normal" in2="BackgroundImageFix" result="effect1_dropShadow_1733_3905"/>
<feBlend mode="normal" in="SourceGraphic" in2="effect1_dropShadow_1733_3905" result="shape"/>
</filter>
<filter id="filter13_d_1733_3905" x="120.484" y="33.6603" width="11.2858" height="11.6893" filterUnits="userSpaceOnUse" color-interpolation-filters="sRGB">
<feFlood flood-opacity="0" result="BackgroundImageFix"/>
<feColorMatrix in="SourceAlpha" type="matrix" values="0 0 0 0 0 0 0 0 0 0 0 0 0 0 0 0 0 0 127 0" result="hardAlpha"/>
<feOffset dy="4"/>
<feGaussianBlur stdDeviation="2"/>
<feComposite in2="hardAlpha" operator="out"/>
<feColorMatrix type="matrix" values="0 0 0 0 0 0 0 0 0 0 0 0 0 0 0 0 0 0 0.8 0"/>
<feBlend mode="normal" in2="BackgroundImageFix" result="effect1_dropShadow_1733_3905"/>
<feBlend mode="normal" in="SourceGraphic" in2="effect1_dropShadow_1733_3905" result="shape"/>
</filter>
<filter id="filter14_d_1733_3905" x="99.4005" y="33.6555" width="10.4384" height="11.6844" filterUnits="userSpaceOnUse" color-interpolation-filters="sRGB">
<feFlood flood-opacity="0" result="BackgroundImageFix"/>
<feColorMatrix in="SourceAlpha" type="matrix" values="0 0 0 0 0 0 0 0 0 0 0 0 0 0 0 0 0 0 127 0" result="hardAlpha"/>
<feOffset dy="4"/>
<feGaussianBlur stdDeviation="2"/>
<feComposite in2="hardAlpha" operator="out"/>
<feColorMatrix type="matrix" values="0 0 0 0 0 0 0 0 0 0 0 0 0 0 0 0 0 0 0.8 0"/>
<feBlend mode="normal" in2="BackgroundImageFix" result="effect1_dropShadow_1733_3905"/>
<feBlend mode="normal" in="SourceGraphic" in2="effect1_dropShadow_1733_3905" result="shape"/>
</filter>
<filter id="filter15_d_1733_3905" x="68.2887" y="33.6578" width="11.1747" height="11.6844" filterUnits="userSpaceOnUse" color-interpolation-filters="sRGB">
<feFlood flood-opacity="0" result="BackgroundImageFix"/>
<feColorMatrix in="SourceAlpha" type="matrix" values="0 0 0 0 0 0 0 0 0 0 0 0 0 0 0 0 0 0 127 0" result="hardAlpha"/>
<feOffset dy="4"/>
<feGaussianBlur stdDeviation="2"/>
<feComposite in2="hardAlpha" operator="out"/>
<feColorMatrix type="matrix" values="0 0 0 0 0 0 0 0 0 0 0 0 0 0 0 0 0 0 0.8 0"/>
<feBlend mode="normal" in2="BackgroundImageFix" result="effect1_dropShadow_1733_3905"/>
<feBlend mode="normal" in="SourceGraphic" in2="effect1_dropShadow_1733_3905" result="shape"/>
</filter>
<filter id="filter16_d_1733_3905" x="44.1266" y="4.71375" width="100.873" height="23.6439" filterUnits="userSpaceOnUse" color-interpolation-filters="sRGB">
<feFlood flood-opacity="0" result="BackgroundImageFix"/>
<feColorMatrix in="SourceAlpha" type="matrix" values="0 0 0 0 0 0 0 0 0 0 0 0 0 0 0 0 0 0 127 0" result="hardAlpha"/>
<feOffset dy="4"/>
<feGaussianBlur stdDeviation="2"/>
<feComposite in2="hardAlpha" operator="out"/>
<feColorMatrix type="matrix" values="0 0 0 0 0 0 0 0 0 0 0 0 0 0 0 0 0 0 0.8 0"/>
<feBlend mode="normal" in2="BackgroundImageFix" result="effect1_dropShadow_1733_3905"/>
<feBlend mode="normal" in="SourceGraphic" in2="effect1_dropShadow_1733_3905" result="shape"/>
</filter>
<filter id="filter17_d_1733_3905" x="-4" y="0" width="49.3613" height="48.0012" filterUnits="userSpaceOnUse" color-interpolation-filters="sRGB">
<feFlood flood-opacity="0" result="BackgroundImageFix"/>
<feColorMatrix in="SourceAlpha" type="matrix" values="0 0 0 0 0 0 0 0 0 0 0 0 0 0 0 0 0 0 127 0" result="hardAlpha"/>
<feOffset dy="4"/>
<feGaussianBlur stdDeviation="2"/>
<feComposite in2="hardAlpha" operator="out"/>
<feColorMatrix type="matrix" values="0 0 0 0 0 0 0 0 0 0 0 0 0 0 0 0 0 0 0.8 0"/>
<feBlend mode="normal" in2="BackgroundImageFix" result="effect1_dropShadow_1733_3905"/>
<feBlend mode="normal" in="SourceGraphic" in2="effect1_dropShadow_1733_3905" result="shape"/>
</filter>
<clipPath id="clip0_1733_3905">
<rect width="141" height="40" fill="white"/>
</clipPath>
<clipPath id="clip1_1733_3905">
<rect width="41.36" height="40" fill="white"/>
</clipPath>
</defs>
</svg>
